<svg width="30" height="23" viewBox="0 0 30 23" fill="none" xmlns="http://www.w3.org/2000/svg">
<g id="Quote icon">
<path id="&#226;&#128;&#156;" d="M0 15.2761C0 19.4813 2.96703 23 6.42857 23C9.80769 23 12.3626 20.3396 12.3626 16.9067C12.3626 13.2164 9.23077 10.7276 5.10989 10.4701C6.18132 7.72388 7.99451 4.80597 11.5385 1.11567L10.467 0C3.62637 4.03358 0 10.1269 0 15.2761ZM17.6374 15.2761C17.6374 19.4813 20.6044 23 24.0659 23C27.4451 23 30 20.3396 30 16.9067C30 13.2164 26.8681 10.7276 22.7473 10.4701C23.8187 7.72388 25.6319 4.80597 29.1758 1.11567L28.1044 0C21.2637 4.03358 17.6374 10.1269 17.6374 15.2761Z" fill="#2D2D2D"/>
</g>
</svg>
